<?xml version="1.0" standalone="no"?><!DOCTYPE svg PUBLIC "-//W3C//DTD SVG 1.1//EN" "http://www.w3.org/Graphics/SVG/1.1/DTD/svg11.dtd"><svg class="icon" width="200px" height="200.00px" viewBox="0 0 1024 1024" version="1.1" xmlns="http://www.w3.org/2000/svg"><path d="M224.7 159.4c21 35.9 60.1 60.1 104.6 60.1h365.2c44.5 0 83.5-24.2 104.6-60.1 44.1 35.9 81.3 79.9 109.3 129.5 18.8 33.4 33.4 69 43.2 105.9 10.1 38.1 15.3 77.6 15.3 117.4 0 61.4-12 121-35.7 177.1-22.9 54.2-55.7 102.8-97.5 144.6s-90.5 74.6-144.6 97.5C633 955.1 573.4 967.1 512 967.1c-61.4 0-121-12-177.1-35.7-54.2-22.9-102.8-55.7-144.6-97.5s-74.6-90.5-97.5-144.6c-23.7-56.1-35.7-115.7-35.7-177.1 0-39.8 5.1-79.3 15.3-117.4 9.8-36.9 24.4-72.5 43.2-105.9 27.8-49.6 65-93.6 109.1-129.5M775.1 93c0.1 1.8 0.5 3.5 0.5 5.3 0 44.6-36.5 81.1-81.1 81.1H329.3c-44.6 0-81.1-36.5-81.1-81.1 0-1.8 0.4-3.5 0.5-5.3C109.5 180.6 16.9 335.5 16.9 512.2c0 273.4 221.6 495 495 495s495-221.6 495-495c0-176.7-92.6-331.6-231.8-419.2zM714.7 17.2H309c-11.2 0-20.3 9.1-20.3 20.3s9.1 20.3 20.3 20.3h405.7c11.2 0 20.3-9.1 20.3-20.3s-9.1-20.3-20.3-20.3z" fill="#999999" /><path d="M714.7 367H309c-11.2 0-20.3 9.1-20.3 20.3s9.1 20.3 20.3 20.3h405.7c11.2 0 20.3-9.1 20.3-20.3s-9.1-20.3-20.3-20.3zM714.7 529.3H309c-11.2 0-20.3 9.1-20.3 20.3s9.1 20.3 20.3 20.3h405.7c11.2 0 20.3-9.1 20.3-20.3s-9.1-20.3-20.3-20.3zM714.7 691.6H309c-11.2 0-20.3 9.1-20.3 20.3s9.1 20.3 20.3 20.3h405.7c11.2 0 20.3-9.1 20.3-20.3s-9.1-20.3-20.3-20.3z" fill="#999999" /></svg>